<svg width="800" height="148" viewBox="0 0 800 148" fill="none" xmlns="http://www.w3.org/2000/svg">
<path d="M73.7754 91.6975C68.7647 93.0379 63.4658 93.152 58.3375 91.9779C50.7687 90.2451 44.0862 85.8239 39.5312 79.5356C34.9763 73.2474 32.8587 65.5196 33.5717 57.7878C34.2847 50.0559 37.7798 42.8457 43.4079 37.4965C49.036 32.1473 56.4144 29.0228 64.1725 28.7033C71.9305 28.3839 79.5408 30.8912 85.5897 35.7596C91.6385 40.6279 95.7147 47.5264 97.0609 55.1734C98.2269 61.7962 97.2766 68.5905 94.3881 74.606L81.7747 63.7151C82.0371 62.54 82.1755 61.3181 82.1755 60.0639C82.1755 50.8495 74.7057 43.3797 65.4913 43.3797C56.2768 43.3797 48.8071 50.8495 48.8071 60.0639C48.8071 69.2783 56.2768 76.7481 65.4913 76.7481C68.5215 76.7481 71.363 75.9403 73.8122 74.5283L105.904 102.238C102.458 105.762 98.5599 108.837 94.3 111.374C87.0611 115.687 78.9574 118.344 70.5704 119.155C62.1834 119.965 53.7209 118.91 45.7898 116.064C37.8588 113.219 30.6559 108.653 24.6977 102.695L16.0166 111.376C23.2558 118.615 32.0073 124.162 41.6435 127.62C51.2797 131.078 61.5617 132.36 71.7519 131.375C81.9421 130.389 91.788 127.161 100.583 121.921C108.091 117.449 114.674 111.606 119.997 104.71L123.95 100.131L104.214 83.0897C109.463 73.9979 111.352 63.3378 109.528 52.9786C107.65 42.3117 101.964 32.6891 93.5265 25.8982C85.089 19.1073 74.4734 15.6098 63.6517 16.0555C52.83 16.5011 42.5378 20.8595 34.6872 28.3211C26.8366 35.7827 21.9611 45.8403 20.9666 56.6254C19.972 67.4105 22.9259 78.19 29.2796 86.9615C35.6333 95.733 44.9548 101.9 55.5125 104.317C65.3403 106.567 75.6173 105.426 84.684 101.116L73.7754 91.6975Z" fill="white"/>
<path d="M199.705 29.4199C198.7 27.793 197.36 26.6207 195.685 25.903C194.011 25.1374 192.264 24.7546 190.446 24.7546C189.106 24.7546 187.79 24.9221 186.498 25.257C185.206 25.592 184.034 26.0944 182.981 26.7643C181.977 27.4341 181.163 28.3194 180.541 29.4199C179.919 30.5204 179.608 31.8123 179.608 33.2957C179.608 34.444 179.775 35.4728 180.11 36.3819C180.493 37.2432 181.091 38.0327 181.905 38.7505C182.718 39.4682 183.819 40.1381 185.206 40.7601C186.594 41.3822 188.293 42.0042 190.302 42.6262C192.264 43.2483 194.154 43.9182 195.972 44.6359C197.839 45.3536 199.465 46.2628 200.853 47.3633C202.288 48.4638 203.413 49.8514 204.226 51.5262C205.088 53.153 205.518 55.2105 205.518 57.6987C205.518 60.2347 205.016 62.4357 204.011 64.3019C203.006 66.168 201.666 67.7231 199.992 68.9671C198.365 70.1634 196.475 71.0486 194.322 71.6228C192.168 72.2448 189.943 72.5558 187.647 72.5558C186.163 72.5558 184.68 72.4123 183.197 72.1252C181.713 71.8859 180.278 71.5032 178.89 70.9768C177.55 70.4026 176.282 69.6849 175.086 68.8236C173.89 67.9145 172.861 66.8139 172 65.522L177.168 61.2874C178.268 63.1535 179.799 64.565 181.761 65.522C183.723 66.479 185.804 66.9575 188.006 66.9575C189.297 66.9575 190.589 66.7661 191.881 66.3833C193.221 66.0005 194.417 65.4502 195.47 64.7325C196.523 63.9669 197.384 63.0339 198.054 61.9333C198.724 60.8328 199.059 59.5648 199.059 58.1293C199.059 56.5503 198.795 55.2823 198.269 54.3253C197.743 53.3205 196.929 52.4592 195.829 51.7415C194.728 51.0237 193.341 50.3778 191.666 49.8036C189.991 49.2294 188.029 48.5595 185.781 47.7939C183.962 47.2197 182.288 46.5738 180.756 45.856C179.225 45.0905 177.885 44.1813 176.737 43.1286C175.637 42.0281 174.751 40.7362 174.081 39.2529C173.459 37.7217 173.148 35.9034 173.148 33.7981C173.148 31.3578 173.627 29.2285 174.584 27.4102C175.541 25.592 176.833 24.0847 178.46 22.8885C180.086 21.6444 181.929 20.7113 183.986 20.0893C186.044 19.4673 188.197 19.1562 190.446 19.1562C193.317 19.1562 195.925 19.6108 198.269 20.5199C200.662 21.3812 202.791 22.9124 204.657 25.1135L199.705 29.4199Z" fill="white"/>
<path d="M217.265 20.4482H226.237L243.462 60.2825H243.606L260.975 20.4482H269.732V71.2639H263.703V28.6304H263.559L245.329 71.2639H241.668L223.438 28.6304H223.294V71.2639H217.265V20.4482Z" fill="white"/>
<path d="M300.682 20.4482H306.352L327.956 71.2639H320.922L315.755 58.7753H290.347L285.107 71.2639H278.289L300.682 20.4482ZM303.41 28.1997H303.266L292.715 53.177H313.458L303.41 28.1997Z" fill="white"/>
<path d="M336.505 20.4482H349.496C351.936 20.4482 354.352 20.5917 356.745 20.8788C359.185 21.1659 361.362 21.7879 363.276 22.7449C365.19 23.7019 366.745 25.1135 367.941 26.9796C369.138 28.7978 369.736 31.286 369.736 34.444C369.736 38.1763 368.611 41.1908 366.362 43.4875C364.114 45.7843 361.003 47.2437 357.032 47.8657L371.458 71.2639H364.066L350.285 48.4399H342.534V71.2639H336.505V20.4482ZM342.534 42.8415H347.917C349.591 42.8415 351.314 42.7937 353.084 42.698C354.903 42.6023 356.553 42.2913 358.037 41.7649C359.568 41.2386 360.812 40.4252 361.769 39.3246C362.774 38.1763 363.276 36.5494 363.276 34.444C363.276 32.6258 362.917 31.1664 362.2 30.0658C361.482 28.9653 360.525 28.128 359.329 27.5538C358.18 26.9317 356.864 26.525 355.381 26.3336C353.946 26.1422 352.486 26.0465 351.003 26.0465H342.534V42.8415Z" fill="white"/>
<path d="M415.007 26.0465H398.212V71.2639H392.183V26.0465H375.388V20.4482H415.007V26.0465Z" fill="white"/>
<path d="M459.522 30.9271C457.991 28.8696 456.101 27.3384 453.852 26.3336C451.603 25.2809 449.259 24.7546 446.818 24.7546C443.995 24.7546 441.388 25.3288 438.995 26.4772C436.651 27.6255 434.617 29.1806 432.894 31.1424C431.172 33.0564 429.832 35.3053 428.875 37.8892C427.918 40.4252 427.44 43.0808 427.44 45.856C427.44 48.8227 427.918 51.5979 428.875 54.1818C429.832 56.7178 431.148 58.9428 432.823 60.8567C434.545 62.7228 436.579 64.2062 438.923 65.3067C441.316 66.4072 443.948 66.9575 446.818 66.9575C449.929 66.9575 452.704 66.3594 455.144 65.1632C457.584 63.9191 459.714 62.1487 461.532 59.8519L466.054 63.6559C463.757 66.7182 460.982 68.9672 457.728 70.4026C454.522 71.8381 450.886 72.5558 446.818 72.5558C443.182 72.5558 439.785 71.8859 436.627 70.5462C433.469 69.2064 430.717 67.3642 428.373 65.0196C426.076 62.6271 424.258 59.8041 422.918 56.5503C421.626 53.2966 420.98 49.7318 420.98 45.856C420.98 42.1238 421.602 38.6308 422.846 35.3771C424.138 32.1234 425.932 29.3003 428.229 26.9078C430.526 24.5153 433.253 22.6253 436.411 21.2377C439.569 19.8501 443.038 19.1562 446.818 19.1562C450.264 19.1562 453.565 19.7783 456.723 21.0224C459.929 22.2664 462.609 24.3 464.762 27.1231L459.522 30.9271Z" fill="white" fill-opacity="0.5"/>
<path d="M499.866 72.5558C495.991 72.5558 492.426 71.8859 489.172 70.5462C485.966 69.2064 483.167 67.3642 480.775 65.0196C478.43 62.6271 476.588 59.8041 475.248 56.5503C473.956 53.2487 473.31 49.684 473.31 45.856C473.31 42.0281 473.956 38.4873 475.248 35.2335C476.588 31.932 478.43 29.1089 480.775 26.7643C483.167 24.3718 485.966 22.5057 489.172 21.1659C492.426 19.8261 495.991 19.1562 499.866 19.1562C503.742 19.1562 507.283 19.8261 510.489 21.1659C513.743 22.5057 516.542 24.3718 518.886 26.7643C521.279 29.1089 523.121 31.932 524.413 35.2335C525.753 38.4873 526.423 42.0281 526.423 45.856C526.423 49.684 525.753 53.2487 524.413 56.5503C523.121 59.8041 521.279 62.6271 518.886 65.0196C516.542 67.3642 513.743 69.2064 510.489 70.5462C507.283 71.8859 503.742 72.5558 499.866 72.5558ZM499.866 66.9575C502.833 66.9575 505.537 66.4072 507.977 65.3067C510.465 64.2062 512.594 62.6989 514.365 60.785C516.135 58.871 517.499 56.646 518.456 54.11C519.461 51.5262 519.963 48.7748 519.963 45.856C519.963 42.9372 519.461 40.2098 518.456 37.6738C517.499 35.09 516.135 32.8411 514.365 30.9271C512.594 29.0132 510.465 27.5059 507.977 26.4054C505.537 25.3049 502.833 24.7546 499.866 24.7546C496.9 24.7546 494.172 25.3049 491.684 26.4054C489.244 27.5059 487.139 29.0132 485.368 30.9271C483.598 32.8411 482.21 35.09 481.205 37.6738C480.248 40.2098 479.77 42.9372 479.77 45.856C479.77 48.7748 480.248 51.5262 481.205 54.11C482.21 56.646 483.598 58.871 485.368 60.785C487.139 62.6989 489.244 64.2062 491.684 65.3067C494.172 66.4072 496.9 66.9575 499.866 66.9575Z" fill="white" fill-opacity="0.5"/>
<path d="M537.905 20.4482H545.513L574.941 62.6511H575.084V20.4482H581.113V71.2639H573.505L544.078 29.061H543.934V71.2639H537.905V20.4482Z" fill="white" fill-opacity="0.5"/>
<path d="M595.563 20.4482H603.171L632.598 62.6511H632.741V20.4482H638.77V71.2639H631.162L601.735 29.061H601.592V71.2639H595.563V20.4482Z" fill="white" fill-opacity="0.5"/>
<path d="M653.22 20.4482H685.159V26.0465H659.249V41.9803H683.436V47.5786H659.249V65.6656H686.451V71.2639H653.22V20.4482Z" fill="white" fill-opacity="0.5"/>
<path d="M733.159 30.9271C731.628 28.8696 729.738 27.3384 727.489 26.3336C725.24 25.2809 722.896 24.7546 720.455 24.7546C717.632 24.7546 715.025 25.3288 712.632 26.4772C710.288 27.6255 708.254 29.1806 706.531 31.1424C704.809 33.0564 703.469 35.3053 702.512 37.8892C701.555 40.4252 701.077 43.0808 701.077 45.856C701.077 48.8227 701.555 51.5979 702.512 54.1818C703.469 56.7178 704.785 58.9428 706.46 60.8567C708.182 62.7228 710.216 64.2062 712.56 65.3067C714.953 66.4072 717.584 66.9575 720.455 66.9575C723.566 66.9575 726.341 66.3594 728.781 65.1632C731.221 63.9191 733.351 62.1487 735.169 59.8519L739.691 63.6559C737.394 66.7182 734.619 68.9672 731.365 70.4026C728.159 71.8381 724.523 72.5558 720.455 72.5558C716.819 72.5558 713.422 71.8859 710.264 70.5462C707.106 69.2064 704.354 67.3642 702.01 65.0196C699.713 62.6271 697.895 59.8041 696.555 56.5503C695.263 53.2966 694.617 49.7318 694.617 45.856C694.617 42.1238 695.239 38.6308 696.483 35.3771C697.775 32.1234 699.569 29.3003 701.866 26.9078C704.163 24.5153 706.89 22.6253 710.048 21.2377C713.206 19.8501 716.675 19.1562 720.455 19.1562C723.901 19.1562 727.202 19.7783 730.36 21.0224C733.566 22.2664 736.246 24.3 738.399 27.1231L733.159 30.9271Z" fill="white" fill-opacity="0.5"/>
<path d="M783.982 26.0465H767.187V71.2639H761.158V26.0465H744.363V20.4482H783.982V26.0465Z" fill="white" fill-opacity="0.5"/>
<path d="M174.52 124.557V98.6366H182.242C182.542 98.6366 183.028 98.6426 183.7 98.6546C184.384 98.6666 185.032 98.7206 185.644 98.8166C187.588 99.0806 189.202 99.8126 190.486 101.013C191.77 102.201 192.73 103.713 193.366 105.549C194.002 107.373 194.32 109.389 194.32 111.597C194.32 113.817 194.002 115.845 193.366 117.681C192.73 119.505 191.77 121.011 190.486 122.199C189.202 123.387 187.588 124.113 185.644 124.377C185.032 124.461 184.378 124.515 183.682 124.539C182.998 124.551 182.518 124.557 182.242 124.557H174.52ZM176.698 122.523H182.242C182.782 122.523 183.34 122.511 183.916 122.487C184.492 122.451 184.984 122.397 185.392 122.325C187 122.037 188.296 121.401 189.28 120.417C190.264 119.421 190.978 118.167 191.422 116.655C191.878 115.131 192.106 113.445 192.106 111.597C192.106 109.737 191.878 108.051 191.422 106.539C190.966 105.015 190.246 103.761 189.262 102.777C188.278 101.781 186.988 101.145 185.392 100.869C184.984 100.797 184.48 100.749 183.88 100.725C183.292 100.689 182.746 100.671 182.242 100.671H176.698V122.523ZM204.937 125.097C203.437 125.097 202.189 124.833 201.193 124.305C200.209 123.777 199.471 123.081 198.979 122.217C198.487 121.341 198.241 120.393 198.241 119.373C198.241 118.269 198.469 117.345 198.925 116.601C199.393 115.857 200.011 115.257 200.779 114.801C201.559 114.345 202.417 114.003 203.353 113.775C204.421 113.535 205.573 113.331 206.809 113.163C208.045 112.983 209.221 112.827 210.337 112.695C211.465 112.563 212.383 112.449 213.091 112.353L212.335 112.803C212.383 110.703 211.987 109.143 211.147 108.123C210.319 107.091 208.855 106.575 206.755 106.575C205.279 106.575 204.061 106.911 203.101 107.583C202.153 108.243 201.487 109.269 201.103 110.661L198.979 110.067C199.423 108.303 200.317 106.947 201.661 105.999C203.005 105.051 204.727 104.577 206.827 104.577C208.615 104.577 210.115 104.925 211.327 105.621C212.551 106.317 213.403 107.295 213.883 108.555C214.087 109.071 214.225 109.677 214.297 110.373C214.369 111.057 214.405 111.747 214.405 112.443V124.557H212.515V119.445L213.217 119.625C212.629 121.377 211.603 122.727 210.139 123.675C208.675 124.623 206.941 125.097 204.937 125.097ZM205.045 123.189C206.365 123.189 207.523 122.955 208.519 122.487C209.515 122.007 210.319 121.341 210.931 120.489C211.555 119.625 211.951 118.611 212.119 117.447C212.239 116.799 212.305 116.097 212.317 115.341C212.329 114.585 212.335 114.027 212.335 113.667L213.235 114.243C212.455 114.339 211.519 114.441 210.427 114.549C209.347 114.657 208.243 114.789 207.115 114.945C205.987 115.101 204.967 115.299 204.055 115.539C203.491 115.695 202.921 115.923 202.345 116.223C201.781 116.511 201.307 116.913 200.923 117.429C200.551 117.945 200.365 118.599 200.365 119.391C200.365 119.979 200.509 120.567 200.797 121.155C201.097 121.743 201.589 122.229 202.273 122.613C202.957 122.997 203.881 123.189 205.045 123.189ZM230.393 124.557C229.361 124.785 228.341 124.869 227.333 124.809C226.325 124.761 225.425 124.539 224.633 124.143C223.853 123.735 223.265 123.111 222.869 122.271C222.545 121.587 222.365 120.897 222.329 120.201C222.293 119.505 222.275 118.707 222.275 117.807V99.7166H224.363V117.771C224.363 118.587 224.369 119.265 224.381 119.805C224.405 120.333 224.531 120.819 224.759 121.263C225.191 122.091 225.875 122.595 226.811 122.775C227.747 122.943 228.941 122.913 230.393 122.685V124.557ZM217.919 107.007V105.117H230.393V107.007H217.919ZM240.722 125.097C239.222 125.097 237.974 124.833 236.978 124.305C235.994 123.777 235.256 123.081 234.764 122.217C234.272 121.341 234.026 120.393 234.026 119.373C234.026 118.269 234.254 117.345 234.71 116.601C235.178 115.857 235.796 115.257 236.564 114.801C237.344 114.345 238.202 114.003 239.138 113.775C240.206 113.535 241.358 113.331 242.594 113.163C243.83 112.983 245.006 112.827 246.122 112.695C247.25 112.563 248.168 112.449 248.876 112.353L248.12 112.803C248.168 110.703 247.772 109.143 246.932 108.123C246.104 107.091 244.64 106.575 242.54 106.575C241.064 106.575 239.846 106.911 238.886 107.583C237.938 108.243 237.272 109.269 236.888 110.661L234.764 110.067C235.208 108.303 236.102 106.947 237.446 105.999C238.79 105.051 240.512 104.577 242.612 104.577C244.4 104.577 245.9 104.925 247.112 105.621C248.336 106.317 249.188 107.295 249.668 108.555C249.872 109.071 250.01 109.677 250.082 110.373C250.154 111.057 250.19 111.747 250.19 112.443V124.557H248.3V119.445L249.002 119.625C248.414 121.377 247.388 122.727 245.924 123.675C244.46 124.623 242.726 125.097 240.722 125.097ZM240.83 123.189C242.15 123.189 243.308 122.955 244.304 122.487C245.3 122.007 246.104 121.341 246.716 120.489C247.34 119.625 247.736 118.611 247.904 117.447C248.024 116.799 248.09 116.097 248.102 115.341C248.114 114.585 248.12 114.027 248.12 113.667L249.02 114.243C248.24 114.339 247.304 114.441 246.212 114.549C245.132 114.657 244.028 114.789 242.9 114.945C241.772 115.101 240.752 115.299 239.84 115.539C239.276 115.695 238.706 115.923 238.13 116.223C237.566 116.511 237.092 116.913 236.708 117.429C236.336 117.945 236.15 118.599 236.15 119.391C236.15 119.979 236.294 120.567 236.582 121.155C236.882 121.743 237.374 122.229 238.058 122.613C238.742 122.997 239.666 123.189 240.83 123.189ZM272.278 124.557V98.6366H280C280.3 98.6366 280.786 98.6426 281.458 98.6546C282.142 98.6666 282.79 98.7206 283.402 98.8166C285.346 99.0806 286.96 99.8126 288.244 101.013C289.528 102.201 290.488 103.713 291.124 105.549C291.76 107.373 292.078 109.389 292.078 111.597C292.078 113.817 291.76 115.845 291.124 117.681C290.488 119.505 289.528 121.011 288.244 122.199C286.96 123.387 285.346 124.113 283.402 124.377C282.79 124.461 282.136 124.515 281.44 124.539C280.756 124.551 280.276 124.557 280 124.557H272.278ZM274.456 122.523H280C280.54 122.523 281.098 122.511 281.674 122.487C282.25 122.451 282.742 122.397 283.15 122.325C284.758 122.037 286.054 121.401 287.038 120.417C288.022 119.421 288.736 118.167 289.18 116.655C289.636 115.131 289.864 113.445 289.864 111.597C289.864 109.737 289.636 108.051 289.18 106.539C288.724 105.015 288.004 103.761 287.02 102.777C286.036 101.781 284.746 101.145 283.15 100.869C282.742 100.797 282.238 100.749 281.638 100.725C281.05 100.689 280.504 100.671 280 100.671H274.456V122.523ZM297.079 124.557V105.117H298.969V109.779L298.501 109.167C298.717 108.615 298.987 108.105 299.311 107.637C299.647 107.157 299.989 106.767 300.337 106.467C300.853 105.987 301.459 105.627 302.155 105.387C302.851 105.135 303.553 104.991 304.261 104.955C304.969 104.907 305.611 104.961 306.187 105.117V107.079C305.419 106.899 304.603 106.863 303.739 106.971C302.875 107.079 302.065 107.451 301.309 108.087C300.649 108.663 300.169 109.335 299.869 110.103C299.569 110.859 299.377 111.657 299.293 112.497C299.209 113.325 299.167 114.135 299.167 114.927V124.557H297.079ZM310.954 101.193V98.5466H313.024V101.193H310.954ZM310.954 124.557V105.117H313.024V124.557H310.954ZM324.69 124.557L317.634 105.117H319.776L325.788 121.731L331.782 105.117H333.942L326.886 124.557H324.69ZM345.495 125.097C343.635 125.097 342.027 124.683 340.671 123.855C339.315 123.015 338.265 121.833 337.521 120.309C336.777 118.773 336.405 116.961 336.405 114.873C336.405 112.749 336.771 110.919 337.503 109.383C338.247 107.835 339.291 106.647 340.635 105.819C341.991 104.991 343.599 104.577 345.459 104.577C347.343 104.577 348.951 105.009 350.283 105.873C351.627 106.725 352.647 107.961 353.343 109.581C354.051 111.201 354.387 113.151 354.351 115.431H352.191V114.711C352.131 112.047 351.531 110.019 350.391 108.627C349.251 107.235 347.619 106.539 345.495 106.539C343.299 106.539 341.601 107.265 340.401 108.717C339.213 110.157 338.619 112.197 338.619 114.837C338.619 117.453 339.213 119.481 340.401 120.921C341.601 122.361 343.287 123.081 345.459 123.081C346.959 123.081 348.267 122.733 349.383 122.037C350.511 121.329 351.405 120.321 352.065 119.013L353.937 119.841C353.157 121.521 352.029 122.817 350.553 123.729C349.077 124.641 347.391 125.097 345.495 125.097ZM337.827 115.431V113.559H353.181V115.431H337.827ZM366.515 125.061C364.271 125.061 362.417 124.587 360.953 123.639C359.501 122.691 358.601 121.371 358.253 119.679L360.377 119.319C360.677 120.471 361.385 121.389 362.501 122.073C363.617 122.757 364.985 123.099 366.605 123.099C368.213 123.099 369.491 122.757 370.439 122.073C371.387 121.389 371.861 120.453 371.861 119.265C371.861 118.617 371.711 118.089 371.411 117.681C371.123 117.261 370.547 116.877 369.683 116.529C368.819 116.181 367.535 115.773 365.831 115.305C364.031 114.825 362.621 114.345 361.601 113.865C360.593 113.385 359.879 112.839 359.458 112.227C359.051 111.615 358.847 110.865 358.847 109.977C358.847 108.909 359.153 107.973 359.765 107.169C360.377 106.353 361.229 105.717 362.321 105.261C363.425 104.805 364.697 104.577 366.137 104.577C367.577 104.577 368.873 104.817 370.025 105.297C371.177 105.765 372.107 106.425 372.815 107.277C373.523 108.117 373.931 109.095 374.039 110.211L371.915 110.607C371.711 109.359 371.081 108.375 370.025 107.655C368.969 106.923 367.649 106.551 366.064 106.539C364.565 106.515 363.341 106.815 362.393 107.439C361.445 108.051 360.971 108.861 360.971 109.869C360.971 110.445 361.133 110.937 361.457 111.345C361.793 111.741 362.381 112.107 363.221 112.443C364.061 112.779 365.249 113.139 366.785 113.523C368.657 114.003 370.115 114.495 371.159 114.999C372.215 115.503 372.959 116.097 373.391 116.781C373.823 117.453 374.039 118.287 374.039 119.283C374.039 121.083 373.367 122.499 372.023 123.531C370.691 124.551 368.855 125.061 366.515 125.061ZM396.045 125.097C394.269 125.097 392.667 124.803 391.239 124.215C389.823 123.627 388.647 122.793 387.711 121.713C386.787 120.633 386.169 119.349 385.857 117.861L387.981 117.501C388.425 119.229 389.373 120.591 390.825 121.587C392.289 122.583 394.047 123.081 396.099 123.081C397.491 123.081 398.721 122.859 399.789 122.415C400.857 121.971 401.691 121.347 402.291 120.543C402.891 119.727 403.191 118.779 403.191 117.699C403.191 116.919 403.047 116.265 402.759 115.737C402.483 115.209 402.123 114.777 401.679 114.441C401.235 114.093 400.761 113.817 400.257 113.613C399.753 113.397 399.279 113.223 398.835 113.091L392.319 111.147C391.455 110.895 390.681 110.583 389.997 110.211C389.325 109.827 388.755 109.389 388.287 108.897C387.831 108.393 387.477 107.823 387.225 107.187C386.985 106.551 386.865 105.843 386.865 105.063C386.865 103.671 387.237 102.453 387.981 101.409C388.725 100.365 389.745 99.5546 391.041 98.9786C392.349 98.3906 393.849 98.0966 395.541 98.0966C397.245 98.1086 398.775 98.4266 400.131 99.0506C401.487 99.6626 402.597 100.533 403.461 101.661C404.337 102.789 404.901 104.127 405.153 105.675L403.011 106.053C402.843 104.865 402.411 103.827 401.715 102.939C401.031 102.051 400.155 101.361 399.087 100.869C398.019 100.377 396.831 100.131 395.523 100.131C394.263 100.119 393.147 100.329 392.175 100.761C391.215 101.193 390.459 101.775 389.907 102.507C389.355 103.239 389.079 104.067 389.079 104.991C389.079 105.951 389.337 106.719 389.853 107.295C390.381 107.859 391.023 108.303 391.779 108.627C392.547 108.951 393.279 109.215 393.975 109.419L399.195 110.967C399.687 111.111 400.275 111.315 400.959 111.579C401.643 111.843 402.315 112.221 402.975 112.713C403.635 113.193 404.181 113.835 404.613 114.639C405.057 115.431 405.279 116.427 405.279 117.627C405.279 118.791 405.057 119.835 404.613 120.759C404.169 121.683 403.533 122.469 402.705 123.117C401.877 123.753 400.899 124.239 399.771 124.575C398.643 124.923 397.401 125.097 396.045 125.097ZM417.404 125.007C416.336 125.007 415.376 124.851 414.524 124.539C413.684 124.227 412.952 123.789 412.328 123.225C411.704 122.649 411.188 121.977 410.78 121.209C410.372 120.429 410.066 119.577 409.862 118.653C409.67 117.729 409.574 116.763 409.574 115.755V105.117H411.662V115.233C411.662 116.457 411.782 117.549 412.022 118.509C412.274 119.469 412.646 120.285 413.138 120.957C413.642 121.629 414.266 122.139 415.01 122.487C415.766 122.835 416.654 123.009 417.674 123.009C418.73 123.009 419.642 122.829 420.41 122.469C421.19 122.097 421.826 121.581 422.318 120.921C422.822 120.261 423.194 119.481 423.434 118.581C423.686 117.669 423.812 116.679 423.812 115.611L425.45 115.809C425.45 117.909 425.09 119.643 424.37 121.011C423.662 122.367 422.702 123.375 421.49 124.035C420.278 124.683 418.916 125.007 417.404 125.007ZM424.01 124.557V120.183H423.812V105.117H425.9V124.557H424.01ZM439.86 125.097C437.916 125.097 436.278 124.665 434.946 123.801C433.614 122.925 432.6 121.719 431.904 120.183C431.22 118.635 430.866 116.853 430.842 114.837C430.866 112.785 431.226 110.991 431.922 109.455C432.63 107.907 433.65 106.707 434.982 105.855C436.314 105.003 437.946 104.577 439.878 104.577C441.762 104.577 443.418 105.033 444.846 105.945C446.286 106.845 447.282 108.087 447.834 109.671L445.818 110.409C445.326 109.197 444.552 108.261 443.496 107.601C442.44 106.929 441.228 106.593 439.86 106.593C438.324 106.593 437.058 106.947 436.062 107.655C435.066 108.351 434.322 109.317 433.83 110.553C433.338 111.789 433.08 113.217 433.056 114.837C433.092 117.321 433.674 119.319 434.802 120.831C435.942 122.331 437.628 123.081 439.86 123.081C441.24 123.081 442.434 122.763 443.442 122.127C444.462 121.491 445.242 120.567 445.782 119.355L447.834 120.057C447.078 121.701 446.022 122.955 444.666 123.819C443.31 124.671 441.708 125.097 439.86 125.097ZM460.021 125.097C458.077 125.097 456.439 124.665 455.107 123.801C453.775 122.925 452.761 121.719 452.065 120.183C451.381 118.635 451.027 116.853 451.003 114.837C451.027 112.785 451.387 110.991 452.083 109.455C452.791 107.907 453.811 106.707 455.143 105.855C456.475 105.003 458.107 104.577 460.039 104.577C461.923 104.577 463.579 105.033 465.007 105.945C466.447 106.845 467.443 108.087 467.995 109.671L465.979 110.409C465.487 109.197 464.713 108.261 463.657 107.601C462.601 106.929 461.389 106.593 460.021 106.593C458.485 106.593 457.219 106.947 456.223 107.655C455.227 108.351 454.483 109.317 453.991 110.553C453.499 111.789 453.241 113.217 453.217 114.837C453.253 117.321 453.835 119.319 454.963 120.831C456.103 122.331 457.789 123.081 460.021 123.081C461.401 123.081 462.595 122.763 463.603 122.127C464.623 121.491 465.403 120.567 465.943 119.355L467.995 120.057C467.239 121.701 466.183 122.955 464.827 123.819C463.471 124.671 461.869 125.097 460.021 125.097ZM480.253 125.097C478.393 125.097 476.785 124.683 475.429 123.855C474.073 123.015 473.023 121.833 472.279 120.309C471.535 118.773 471.163 116.961 471.163 114.873C471.163 112.749 471.529 110.919 472.261 109.383C473.005 107.835 474.049 106.647 475.393 105.819C476.749 104.991 478.357 104.577 480.217 104.577C482.101 104.577 483.709 105.009 485.041 105.873C486.385 106.725 487.405 107.961 488.101 109.581C488.809 111.201 489.145 113.151 489.109 115.431H486.949V114.711C486.889 112.047 486.289 110.019 485.149 108.627C484.009 107.235 482.377 106.539 480.253 106.539C478.057 106.539 476.359 107.265 475.159 108.717C473.971 110.157 473.377 112.197 473.377 114.837C473.377 117.453 473.971 119.481 475.159 120.921C476.359 122.361 478.045 123.081 480.217 123.081C481.717 123.081 483.025 122.733 484.141 122.037C485.269 121.329 486.163 120.321 486.823 119.013L488.695 119.841C487.915 121.521 486.787 122.817 485.311 123.729C483.835 124.641 482.149 125.097 480.253 125.097ZM472.585 115.431V113.559H487.939V115.431H472.585ZM501.272 125.061C499.028 125.061 497.174 124.587 495.71 123.639C494.258 122.691 493.358 121.371 493.01 119.679L495.134 119.319C495.434 120.471 496.142 121.389 497.258 122.073C498.374 122.757 499.742 123.099 501.362 123.099C502.97 123.099 504.248 122.757 505.196 122.073C506.144 121.389 506.618 120.453 506.618 119.265C506.618 118.617 506.468 118.089 506.168 117.681C505.88 117.261 505.304 116.877 504.44 116.529C503.576 116.181 502.292 115.773 500.588 115.305C498.788 114.825 497.378 114.345 496.358 113.865C495.35 113.385 494.636 112.839 494.216 112.227C493.808 111.615 493.604 110.865 493.604 109.977C493.604 108.909 493.91 107.973 494.522 107.169C495.134 106.353 495.986 105.717 497.078 105.261C498.182 104.805 499.454 104.577 500.894 104.577C502.334 104.577 503.63 104.817 504.782 105.297C505.934 105.765 506.864 106.425 507.572 107.277C508.28 108.117 508.688 109.095 508.796 110.211L506.672 110.607C506.468 109.359 505.838 108.375 504.782 107.655C503.726 106.923 502.406 106.551 500.822 106.539C499.322 106.515 498.098 106.815 497.15 107.439C496.202 108.051 495.728 108.861 495.728 109.869C495.728 110.445 495.89 110.937 496.214 111.345C496.55 111.741 497.138 112.107 497.978 112.443C498.818 112.779 500.006 113.139 501.542 113.523C503.414 114.003 504.872 114.495 505.916 114.999C506.972 115.503 507.716 116.097 508.148 116.781C508.58 117.453 508.796 118.287 508.796 119.283C508.796 121.083 508.124 122.499 506.78 123.531C505.448 124.551 503.612 125.061 501.272 125.061ZM520.975 125.061C518.731 125.061 516.877 124.587 515.413 123.639C513.961 122.691 513.061 121.371 512.713 119.679L514.837 119.319C515.137 120.471 515.845 121.389 516.961 122.073C518.077 122.757 519.445 123.099 521.065 123.099C522.673 123.099 523.951 122.757 524.899 122.073C525.847 121.389 526.321 120.453 526.321 119.265C526.321 118.617 526.171 118.089 525.871 117.681C525.583 117.261 525.007 116.877 524.143 116.529C523.279 116.181 521.995 115.773 520.291 115.305C518.491 114.825 517.081 114.345 516.061 113.865C515.053 113.385 514.339 112.839 513.919 112.227C513.511 111.615 513.307 110.865 513.307 109.977C513.307 108.909 513.613 107.973 514.225 107.169C514.837 106.353 515.689 105.717 516.781 105.261C517.885 104.805 519.157 104.577 520.597 104.577C522.037 104.577 523.333 104.817 524.485 105.297C525.637 105.765 526.567 106.425 527.275 107.277C527.983 108.117 528.391 109.095 528.499 110.211L526.375 110.607C526.171 109.359 525.541 108.375 524.485 107.655C523.429 106.923 522.109 106.551 520.525 106.539C519.025 106.515 517.801 106.815 516.853 107.439C515.905 108.051 515.431 108.861 515.431 109.869C515.431 110.445 515.593 110.937 515.917 111.345C516.253 111.741 516.841 112.107 517.681 112.443C518.521 112.779 519.709 113.139 521.245 113.523C523.117 114.003 524.575 114.495 525.619 114.999C526.675 115.503 527.419 116.097 527.851 116.781C528.283 117.453 528.499 118.287 528.499 119.283C528.499 121.083 527.827 122.499 526.483 123.531C525.151 124.551 523.315 125.061 520.975 125.061Z" fill="white"/>
</svg>
